<svg xmlns="http://www.w3.org/2000/svg" viewBox="0 0 800 450" role="img" aria-label="Illustration of a hotel room with a bed and a window overlooking a city skyline">
	<rect width="800" height="450" fill="#F3E4D8"/>
	<rect x="0" y="380" width="800" height="70" fill="#E7DDD2"/>

	<rect x="480" y="40" width="260" height="300" rx="6" fill="#FBF7F2"/>
	<rect x="480" y="40" width="260" height="300" rx="6" fill="none" stroke="#E7DDD2" stroke-width="8"/>
	<rect x="606" y="40" width="8" height="300" fill="#E7DDD2"/>
	<g fill="#EAD3BC">
		<rect x="500" y="220" width="30" height="100"/>
		<rect x="536" y="190" width="26" height="130"/>
		<rect x="568" y="240" width="34" height="80"/>
		<rect x="616" y="200" width="30" height="120"/>
		<rect x="652" y="230" width="26" height="90"/>
		<rect x="684" y="180" width="32" height="140"/>
	</g>
	<circle cx="600" cy="110" r="24" fill="#C1622D" opacity="0.7"/>

	<rect x="60" y="230" width="360" height="150" rx="14" fill="#FFFFFF"/>
	<rect x="60" y="200" width="360" height="60" rx="10" fill="#9C4C22"/>
	<rect x="80" y="215" width="130" height="60" rx="16" fill="#FFFFFF"/>
	<rect x="230" y="215" width="130" height="60" rx="16" fill="#FFFFFF"/>
	<rect x="60" y="330" width="360" height="20" fill="#C1622D"/>

	<rect x="420" y="300" width="70" height="80" rx="6" fill="#FBF7F2" stroke="#E7DDD2" stroke-width="4"/>
	<circle cx="455" cy="280" r="18" fill="#9C4C22" opacity="0.85"/>
</svg>
