<svg xmlns="http://www.w3.org/2000/svg" viewBox="0 0 800 450" role="img" aria-label="Illustration of the Eiffel Tower against a warm sky">
	<defs>
		<linearGradient id="sky" x1="0" y1="0" x2="0" y2="1">
			<stop offset="0%" stop-color="#F3E4D8"/>
			<stop offset="100%" stop-color="#FBF7F2"/>
		</linearGradient>
	</defs>
	<rect width="800" height="450" fill="url(#sky)"/>
	<circle cx="640" cy="110" r="55" fill="#EAD3BC" opacity="0.7"/>
	<rect x="0" y="360" width="800" height="90" fill="#E7DDD2"/>
	<g fill="#E7DDD2" opacity="0.8">
		<rect x="40" y="300" width="46" height="70"/>
		<rect x="100" y="280" width="38" height="90"/>
		<rect x="150" y="315" width="50" height="55"/>
		<rect x="610" y="290" width="44" height="80"/>
		<rect x="668" y="310" width="40" height="60"/>
		<rect x="720" y="270" width="46" height="100"/>
	</g>
	<g fill="#9C4C22">
		<polygon points="400,58 372,182 344,296 300,382 500,382 456,296 428,182"/>
		<rect x="330" y="205" width="140" height="10"/>
		<rect x="352" y="285" width="96" height="10"/>
	</g>
	<rect x="386" y="20" width="8" height="42" fill="#9C4C22"/>
</svg>
